<svg xmlns="http://www.w3.org/2000/svg" viewBox="0 0 200 200">
  <!-- Fondo circular suave (opcional) -->
  <circle cx="100" cy="100" r="95" fill="#f8f9fa" />
  
  <!-- Escudo Estilizado UNSA (Fondo Guinda) -->
  <path d="M50 30 L150 30 C150 30 150 50 150 60 C150 110 100 160 100 160 C100 160 50 110 50 60 C50 50 50 30 50 30 Z" 
        fill="#800000" stroke="#800000" stroke-width="2"/>
  
  <!-- Silueta de Rostro (Espacio negativo/blanco) -->
  <path d="M100 65 C85 65 75 75 75 90 C75 105 85 115 100 115 C115 115 125 105 125 90 C125 75 115 65 100 65 Z M100 120 C80 120 65 135 65 145 L135 145 C135 135 120 120 100 120 Z" 
        fill="#ffffff"/>

  <!-- Líneas de Escaneo (Dorado/Amarillo Ocre) -->
  <path d="M70 90 L130 90" stroke="#C5913E" stroke-width="2" stroke-dasharray="4,2"/>
  <rect x="70" y="60" width="60" height="60" fill="none" stroke="#C5913E" stroke-width="2" rx="10" stroke-dasharray="10,5"/>
  
  <!-- Checkmark de "Asistencia" -->
  <circle cx="140" cy="140" r="15" fill="#22c55e" stroke="white" stroke-width="2"/>
  <path d="M133 140 L138 145 L147 135" fill="none" stroke="white" stroke-width="3" stroke-linecap="round" stroke-linejoin="round"/>
</svg>